<svg width="30" height="30" viewBox="0 0 30 30" fill="none" xmlns="http://www.w3.org/2000/svg">
<path fill-rule="evenodd" clip-rule="evenodd" d="M5 7.75C5 7.3358 5.3358 7 5.75 7H24.25C24.6642 7 25 7.3358 25 7.75C25 8.1642 24.6642 8.5 24.25 8.5H5.75C5.3358 8.5 5 8.1642 5 7.75ZM5 15.25C5 14.8358 5.3358 14.5 5.75 14.5H24.25C24.6642 14.5 25 14.8358 25 15.25C25 15.6642 24.6642 16 24.25 16H5.75C5.3358 16 5 15.6642 5 15.25ZM5.75 22C5.3358 22 5 22.3358 5 22.75C5 23.1642 5.3358 23.5 5.75 23.5H24.25C24.6642 23.5 25 23.1642 25 22.75C25 22.3358 24.6642 22 24.25 22H5.75Z" fill="white"/>
</svg>
